<svg role="img" viewBox="0 0 24 24" xmlns="http://www.w3.org/2000/svg"><path fill="currentColor" d="M11.998 24c-.321 0-.641-.084-.922-.247l-2.936-1.737c-.438-.245-.224-.332-.08-.383.585-.203.703-.25 1.328-.604.065-.037.151-.023.218.017l2.256 1.339a.29.29 0 0 0 .272 0l8.795-5.076a.277.277 0 0 0 .134-.238V6.921a.28.28 0 0 0-.137-.242l-8.791-5.072a.277.277 0 0 0-.271 0L3.075 6.68a.28.28 0 0 0-.139.241v10.15a.267.267 0 0 0 .136.235l2.409 1.392c1.307.654 2.108-.116 2.108-.89V7.787c0-.142.114-.253.256-.253h1.115c.139 0 .255.112.255.253v10.021c0 1.745-.95 2.745-2.604 2.745-.508 0-.909 0-2.026-.551L2.28 18.675a1.856 1.856 0 0 1-.922-1.604V6.921c0-.66.353-1.275.922-1.604L11.076.241a1.93 1.93 0 0 1 1.847 0l8.794 5.076c.57.329.924.944.924 1.604v10.15a1.86 1.86 0 0 1-.924 1.604l-8.794 5.078A1.858 1.858 0 0 1 11.998 24z"/></svg>